/* XPM */
static char *result[] = {
/* columns rows colors chars-per-pixel */
"100 100 40 1 ",
"  c #181105",
". c #1C140A",
"X c #20190E",
"o c #231C12",
"O c #2C2417",
"+ c #2D251A",
"@ c #33261F",
"# c #332A1D",
"$ c #342620",
"% c #362C21",
"& c #392D25",
"* c #3D2F29",
"= c #3B3225",
"- c #3E322A",
"; c #42352D",
": c #44392E",
"> c #483F2F",
", c #443730",
"< c #453A31",
"1 c #493E34",
"2 c #4A422F",
"3 c #4C4136",
"4 c #4E4339",
"5 c #504734",
"6 c #524935",
"7 c #51473C",
"8 c #544A3F",
"9 c #554C40",
"0 c #594E43",
"q c #5B5246",
"w c #5E5549",
"e c #61574A",
"r c #645B4D",
"t c #665E50",
"y c #685F51",
"u c #676052",
"i c #6B6354",
"p c #6F6758",
"a c #706758",
"s c #716859",
/* pixels */
"yiasaasssaaaassspppssspppuu0qqwruuupuupuiuiiippssssspssspsssssssaasssssssssssssssspiiiiiipppppsy0411",
"ryaspppaaaapaaaapppppppppuq099qwuppuupupuiuiuppppppsppppppppppaaaaaaaasssaaasspppppiiiiiippppppy0111",
"eripiiiipiiiiipipuuupuppuwq8799wuuppuppuiiiiipipiipiipippiiiiipiaaaaiiaiiaiiiiiipiiiiiiiyippippt91--",
"eruiiiiiiiiiiuiipuuuupupuu97799quuupiupuiiiuiiuuiiiiiiuiiiiiiiiiyyyyyiyiyiiyiiiuiiiiiiiipiyyyiyy9,--",
"eriiiiiiiiiiiiiiuuuuuuuuuuq8789quuuuuuuuuuuuuuuuiiuuiuuuiiiiiiiiyyyyyyyyiiuiiiiiiuiuiuiiyypyyyyr9;,*",
"eriiiitrrrtrrtrruuuuuuuuuq98889qrruuuuuuuruuururttttuuruurtrrrttyyyyyyyyttttttrrtttrttttrrtryyyw1,,*",
"eriaiyeeq0qqqqqqq9qq9qqq999888890q0qq0qq90q0qq0q00qq0q0qq0qqqq8q00q0qq0000000000qq0000000000qq001,,,",
"eriiite688888886888888878888888888979997999999798888888888888888889799889999999999999999999999971,,,",
"erupprq988888848888887888888888888887888888879799779779768888888888878887797890799999499494979771;;;",
"eriiiuq878888888888888888888888888879787878797977977097988888787887888880979877049949999994997941;;;",
"eripiuw988888988889888888888888889988888889879990779709788888888888888899907880749949999799999971:;;",
"erupitq9888888888888888887747477788888988889997799079797900qqqqq0w000w0q00000781494444444799q0q01:;;",
"eriiiuq98888888888888888871<<<177988888897988989799779790wrtwrrryyeyeryyrrye011,11331131130rrrrw7,;;",
"eripitw9888989888898888874<;;;;14889899899979799079999700etyuuuuyyyyyyyyyyyr01<,,--1--<--30tytyr7,;;",
"eriiptq9888898988988888884<;;;,14888889888999977797979790eyiyyuiyaayyyyyyyiy01;;--------*1qtyypr7,;*",
"eriiitq9948888888888888887<;;;;18988888888797999097999700eyiiiyiyyyyyyayyyyy01;;-,<--<-<*3qtyiyr7,,-",
"eriiat88988988888888889874,;;;,11999999991993999779999790etyytyyyyyyyyyyyyyy01,,,,;,,,,,;1qryiyr7,;;",
"eriiite8787998898889889884<;;;,19999199999999999999779700qrttrrrrrrrrryrerye07714714171117qerrrq4,-*",
"eriaiue6778888889888999884<;;;;11993991999399993999779990000000q00q0q000000q0eeewwwweeeerwqq0ww81**&",
"eriiiuw8777788888888779884<;;;,199999999999999999799997779889899889999999999wryyyyyyyyyyyrq98877:&&%",
"eripiu88878889978888988784,;;;,119999999999993997997999997788797988889889190qryyyyyyyyyyyrq98885;&&&",
"eriiiue8778887998888989984<;;:,199931999919999997997979799977979018780189019qyyyyyyyyyiiyyq98887;&&$",
"eriiiuw6877788888899999984<;;;,119999999999999990990909999999999999999999910eyyyayyyyiyiyyw09997,&&%",
"rripiuw8877888998988888884<;;;;199999999919999997979977997897989888888009990qryyyyyyyyyyyrq98884:&&$",
"eriiiuq8878899778887777874,;;;;1199919499499449377777777779799778190819199790wrrrrrrreretw977474;&&%",
"eripiuq6888879998773444111,;;;:<11191411331333193343344111111111111181111111790q0000000009411<<<-&&&",
"rrupiur887888888873::,::,,,,,,,,-41114-13111-1-1<<<<<<<<1,<<<,11,,;;1<<<<<,,<1,<1111111111---*-**&&&",
"rriiiuw888888898871:;-;;;;;:,;;;-------------1-<-,-;;-;;;;;;;;;,;;;;;;;;;,;;;;*;**;**,**-=*$%$%%&&&$",
"eriiiuw698888988871:;;;;;;----=;-----------------*--;;;;;-**;;**;;;;*;;;;;;;;;*****;**;*-=&&&$&%$$$$",
"rriiiue697898898871;;;;;;;;;;;;,1-----1----1-;;;,,;,;;,;;,,,;;;;;;;;;;;;;;;;,,;;,,;,,,,;;-=*&%&&$&&&",
"erupiuqq87988988871:;;;;;,111111111111413111311111<<;;;,,<1111111<<<;<<11<;,<11,,1111,1111-*&&&&--;-",
"rrupiuq688888888871:;;;;,189999990909999999099990974,*;,1490999999099999099000099080080098<-*&*;1788",
"rriiprq997999999771,,;;,:8wtrrtturuururrurrruruuuuq63---90ruuutwtrrrrryttttttrtrtrrtrrurte7:;**10err",
"rriipyw997977977971:,;*;<8rpppiiiippuiiiipipiiipiiu0-**-4wipiiipiiyyyyiiyiiiiiipiiippiippr8<,--4wipp",
"eripurq997999999871,;;*;<8tipipiiiiipipiiiiiipiipie04*-34quppiipiiyyyiipipiipiiipiiiiipipr8,;;*4eiip",
"rruipuq997799779871:;;;;:8riiiiiiiiiuiiiiiiuiiiipir8-*--4qupiiiiiyyyyyyiiiiiiiiiiiiiiiiipr8<;--3wiii",
"rtiiprq997999799871:;;;;<7euyyyyuuuuuuuuuuuuuuuuiuw0>=-140uiuiuuttytttruuuuuuuuuuuuuiiuuyr7<;;;3qtuu",
"rtiiiyw997799997871:;;;;;7qreerwwrwwrererrwrerwwrw07----30wwwwwreewwweeeerwreerewtwweeeerq4<;-;19wer",
"ttiiiyw999999797771;;;;::180009000999900999000990883<--1149000q0990990099900q90000000q88081:;;;:79q9",
"uiiiiy0977979799071:;;;::177777799919999878777948852--1-<3797776977797787877778477786868771;;;;<3488",
"uuiiitq897999779771,;;;;:1799779999499494499799999731,-114898888888888888787979788887889873-;;;:4889",
"uuiiite897979999771:;;;;:177999994994999999999499971----<4898888888888889898888888889888973-;;;>5888",
"uippiiw879997799071,;;;;,17777979999999994497779743<-==--3477777887758889908988898888888973-;;-:4889",
"ruuiitw899779997771:;;;;,179999999499499999999999993<,-:349999998888888887979789888888989731;;;14889",
"wwrtrrq879998889871,;*;,;179977949949994999999qqww09668888qqqqqqqqqee0087517777788898888973-,--14888",
"8qqwwq8899799888871,;;;;,177999999999999943990rurrrwwwwwrrrtwuttrrrrre081<11778088888898973,,,-17888",
"8688888897888888871;,-*,:14979799999499999490wuuiiiuiiiiiiiiiiuuiiiiit01;;;<177998888888973,-;;13889",
"4478888888898888871,,;-,,17979994994999494990rupiipipiipiiipiipiiaiiaiq1;&;;179988899889971-,-;25888",
"468999999988888q971:;;;;<1789977994984899979qruppiiippiiipiiiipiiaiaatq4,*-:179988888888881,;;;<7888",
"4789887888888888871,;;;;:17879999990998877790ruuuiiiuuuuuiiiiiiiyiiiir04,;;,177988888888871,;;;<4798",
"1344344433434344431:;;;;;149799090qqq09899790qrrwtrrtrwtrrrrrrrrrrrrte81,;;:13441717751717::;;;<7888",
"<11111111111111>1<<;;;;;<1789990qrrrwq98797990qqqqqqqqq0qqqqqqqqqqqwqq71;*;:<<111111111:11:,;;;<5888",
":,,;,,,,,;;,;;::,,;,;;;;:1777990uuuuur0899979889089989998888899999990911;;,;;;,;:,,,;;;;,;,;;;;<7797",
"-;;------;-;;-;---;;;;;;:179799wuuiuur0897999447867777778787687877198911;;;;;;-;;;;;;;;;;;;;;;;,7789",
"-*-*----*-*-*-*---;,;:;;:179999wtiiiur0799799979888888788887888879799711:;;;;;;;;;;;;;;;;;;;;;;<1997",
"<<<,<<<,,<,<<<,<<<;;;;;;,1777990ryttrw0979797997888888988888888888999811;;;;;,;;;;;;,;;;;,;;,,;17770",
"4577777777777777711;;;;;,1199990wrrwww0999879999998888988888888888889711;;;,1111:1111111<11111117988",
"qqwweeqewwwqqqqeq07,;;;,,149999900qqq09979899779879898888888988988989711;;;,117171177117777117177789",
"rriitttuiuurtytttw7,;;;;,19999999999999979989989888888888888888889989811;;;,117888888809878797777079",
"tuippapappppiiiiir8<;-;;,11994919991919999797997799888898888898888889711;;;1188008889999999900090799",
"rtuiiiiaaiaiiyiiur8<;-;,,1499999949999499799887999989888898888888898881<,;;;189988988889970979997079",
"ttiiiiiyyiyyyyyyuw4<:-;,,14991999994999997979999978888888888898888889011;;;;178998888888977999779707",
"ttiiiyyrrrrrereerq7;;--,,14999999999999989797997999788888889899898888811;;;;198988888888997997707979",
"tuiiyyreqqqqwqqqq931;;;;,3499999199949948999798887998988988888888888971,;;;,118988898889799899970979",
"uiiiitq088888888863,--11-3999999949994994994499499949949999999499999991,,--,379977997999979999799978",
"iuiiitq888888888863<1----3394949999999999999999999999999499449994949941,,;;<377999979979997979797999",
"uiiiitq08888888897<,---113999999499499949999999949994994999999499949999,,--,379997999799779979998888",
"uiiiiuq888888888873-1----3499499999994999994499999949999994999999999994,,-,,349999979797999799978898",
"uuiiitq888888888873----,-1499999994999994999499999999999999999999999991,,--,349979997999999999798888",
"uiiiitqq88888888873<<<-<134449949999994999999949949949949994949919999111<-,,147979799979797779798898",
"tuiiitq8888888q88743433339999999944994499994443111133111111111141111111,,--<397997997799999979998989",
"rtipiuw888888888898877773994994999999999499944<<<-<<<<<<1,1,,,<,,11,1,,,,,-,149999979997977999978888",
"ruiiiu88888888889939999999939999999999999999931--1--1-----1-,,-,,,,,;;,;;;;,379999979997977999798898",
"wriiiue888888888999999999999993949944949499444----1----1-1---,-,-----;;;;;-;179997997799999979998888",
"rriiiur888888888999949999939399999999949999941-------------------,,--;;--;-,177979799979797779799888",
"ruiiiuw888888888934999199999999999499999999994<:11-11-1-11-9,1,,,,,,<<,<<<;<149979997999999999798889",
"eeiiite68888888899919499999999939999499949947433911413-441,141,1141414143314478899979797999799978988",
"etiaitr888888888999999999993999949949994999997949944999499949994797477777777799997999799779979998888",
"etiiit8888888888199999991999939999999999999949799499994999499949997999979888988799799979999979798888",
"etiiiie688888888999993999999999994994999499499999999999999999999999999999999988977997999977999799888",
"rriiitq999999499993999999999999994994999999997997979797979999899979777999779888899977994999999998888",
"etiiitw994999999999999499499499497999994499799979999999999777897999999999998898897999989997949848888",
"eriiitq991990wwrww99949994411111999999799997497997979797978999990qweewq08788889899979799944313147888",
"rtiiptw99990eryyuw99949944,,,,1149777999979999999997999799899779qettttw09799798877999799943<<,;14888",
"etiaitw99499etyytrq9999994<,,,,199999499499979977799989989979779wryyite09799889899979994973,;;;<4888",
"eriiitw99990tyiyyrq9999494<-;-,149799994997979979979977997999799wryyite09779888897979889941;;--<4888",
"eriiit999999wuuiytq9999991,--*,<49999999999994999799997999799779qryauuw09799898999997799971;;;;<4898",
"rriiiy099999ruuuytq9949991<-,,,149499499499799999997799979799979wyyyuuw09788888897799997973;;;-<4888",
"rtiiiuw69770wuiiur994999911-;*,139949949977988897999797997979779wryyyyw09788988888898888971;;;-<4788",
"tyiiiye89799wwwrrw9994999919191999999999999898887979997997999979qerrreq08888888898888888988444448888",
"tyiipte6799900q00099999999qeeew09999499988887988979997999979797990000909888888898888888879qweeew0888",
"yyiiitq0979799999999794990ryyyyr9999994979997988999799977999999999999999888898888888988880wuyiyrq088",
"uiiiptw899998888999999999wuiyyyr099990999899799999979979999999998899999488988998889989886qryyiytq888",
"ruiiitq8777765889777974990wwrreq9444444888878878788779799737447678889999888889789887747776eytyyee886",
"wuiiir82-<->>3588778999993413311>>::::24666868688688799973<->->:36668744688688889832>;>;:368weqq8q88",
"8qwrw03======-56666644449-%++@$$%===%=-2666666666668999771====#=>266656766568689983-=%%==;5668668888",
"244773-%####%>2666552>11;=+XXoo+@%%##%=2265666665666880832%##%#=:256666656666688073-#####=2566666888",
"==;-,-&######=266652:-;;;#o ...o+###+#=256666666666888885-#+####:26665666666668897>=#+###=2256656888",
"=-;,--&%####%=666665>;;;-&Oooooo#%#%##%>56666666666688084:%####%>266666666668688982:#+#%#=2266668888",
"=--;,-&&%#%%%2266652;;;;-&OooooO#%#%#%=>55666666666688883:%####=:56665656656688887>:=##%#=2566666888"
};
