/* XPM */
static char *result[] = {
/* columns rows colors chars-per-pixel */
"100 100 50 1 ",
"  c #5EA1F8",
". c #66A5F7",
"X c #6CAAF6",
"o c #64A4F8",
"O c #73ADF6",
"+ c #78AFF7",
"@ c #74B2F5",
"# c #7BB3F6",
"$ c #82B5F7",
"% c #88B9F6",
"& c #85CDEE",
"* c #8ECCEF",
"= c #92CFEF",
"- c #8ED0EE",
"; c #95D2EF",
": c #99D3EF",
"> c #85C4F2",
", c #89C7F1",
"< c #82CAF0",
"1 c #8DCBF1",
"2 c #91CDF0",
"3 c #94D1F0",
"4 c #98D2F0",
"5 c #A5D6EF",
"6 c #A8D7EF",
"7 c #A8CDF4",
"8 c #A6D2F1",
"9 c #ADD4F1",
"0 c #ACD9F0",
"q c #B2D6F1",
"w c #BCD7F4",
"e c #B5D9F1",
"r c #BADAF2",
"t c #C5DCF4",
"y c #C8DDF4",
"u c #CCE2F3",
"i c #D2E5F3",
"p c #D9E6F6",
"a c #D5E9F2",
"s c #DBE9F4",
"d c #E2EBF5",
"f c #E8EFF4",
"g c #E5F0F4",
"h c #ECF2F5",
"j c #EEF5F9",
"k c #F5F5F5",
"l c #F8F7F7",
"z c #F9F8F7",
"x c #F7F7F8",
"c c #FCFBFB",
/* pixels */
"ooooooooooooooooooooooooooooooooooooooo  oooooooooooo ooooooooooooooooooooo  ooooooooooooooooooooooo",
"oooooooooooooo oooooooooooooooooo ooooooooooooooooooooooooooooooooooo oooooooooooooooooooo ooo ooooo",
"ooooo ooo ooooooooooooooooo ooooooooooooooooooooooooooooooo ooooooooooooooooooooooooooooooooooooo oo",
"oooooooooooooooooo oo ooooooooooooooooooooooooo oo oooooooooo ooooooooooooooooooooo ooo oooooooooooo",
"ooooooooooooooooooooooooooooooo oooooooo ooo oooooooooooooooooooooo oooooooooooo ooooooooo ooooooooo",
"ooooooooo oooo oooooooooooo ooooo oooooooooooooooooooooooooooooooooooooooooooooooooooooooooooooooo o",
"ooooo oooooooooooooooo ooooooooooooooo oooooooooooo ooo  ooooooooooo oooo oooooooooooooooooo ooooooo",
"o oooooooooooooooo oooooooooooooooooooooooooooooooooooooooooo oooooooooooooooo oooooooo oooooooooooo",
"o ooo ooooooooooooooooooooooooooooooooooooooooooooooooooooooooooooooooooooooooooooooo oooooooo ooooo",
"ooooooooooooooooooooo oooooooooooooo ooooooo oooooooooooooo ooooooooooooooo oooooooooooooooooooooooo",
"oooooooooo ooo ooo ooooooooooooooo oooooooo ooooo ooo oooooooooo oooooooooooooo oooooooooooooooooooo",
"oooooooooooooooooooooooooo ooo oooooooooooooooooooooooooooooo oooooooo ooooooooooo ooooooo oooooo oo",
"oooooooooooooooooooooooooooooooooooooooooooooooooooooooooooooooooooooooooo ooooooooooooooooooooooooo",
"oooo oooo oooooooooooooo ooooooooooooooooooooooooooooo oooooooooooooooo ooooooooooooooooooo ooo oooo",
"ooo oooooooooo ooo ooo oooooooo oo ooo ooooooooo oooooooo ooo ooooooooooooooooooooo ooo oooooooo ooo",
"oooooooooooooooooooooooooooooooooooooooooo ooo oooooooooooooooooo oooooooooooo ooooooooooooooooooooo",
"oooooooooooooo ooooooooooooo oooo ooooooooooooooooooooo ooo oooooooooooooooooooooooooooooooooooooo o",
"oooooooooooooooooooo oooooooooooooooo ooooooooooooooooooooooooooooooo ooo oooooooooooooooooooooooooo",
"oooooooooooooooooooooooooooooooooooooooooooooooo ooooooooooooooooo oooooooooooooooooooooo ooo oooooo",
"oo oooo oooooooooooooooooooooooooooooooooooooooooooooooooooooooooooooooooooooo oo ooo oooooooooooooo",
"o.ooo..ooooooooooo oooooooooooooooooooooooooooooooooooooooo oooooooooooooooooooooooooooooooooooooooo",
"o ooo  oooooooooooooo ooooo  oooo oooo oo oooooooo ooo oooooo ooooooooooo ooo ooooo ooo ooo oooo ooo",
"oooooo..oooooooooooooooooooooooooooooooooooooooooooooooooooooooooooooooooooooooooooooooooooooooooooo",
"ooooooo.oooooooooooooooooooooooooooooooooooooooooooooooooooooooooooooo..oooooooooooooooooooo.ooooooo",
"ooooooooooooooooooooooooooooo oooooooooooooooo.oooooooo oooooooooooooo..oooooooooooooooooooooooooooo",
"oooooooooooooooooooooooooooooooooooooooooooooo..ooooooooooooooooooo.oo..ooooooo.oooooooooooooo.ooooo",
"ooooooooooooooooooo oooo..oo$ oooooooooooooo....oooooo  oooooooooooooo..oooooo.oooooooooooooo.o.oooo",
"oooooooooooooooooooooooo....ooooooooooooooooo...oooooo$ooooooooooooo.oo.ooooooo.oooooo.ooooooo.ooooo",
"oooooooooo....oooooooooo..ooooooooooooooooooooooooooooooooooooooo.ooo.oooooo.o.oooooooooooooXooooooo",
"oooooooooo..oooooooooooooooooooooooooooooooooooooooooooooooooooo.ooo.o.oooooooo.oooooooooooooooooooo",
"oooo....ooo.ooooooooooooooooooooooooooooooooooooooooooooooooooooooooo.oooooooooooooooooooooooooooooo",
"oooo....ooo.oooooooooooooooooooooooooooooooooooooooooooooooooooooooooooooooooooooooooooooooooooooooo",
"oo.ooooooooo.ooo....oo.o.ooooo..oooooooooooooooooooooooooooooooooooooooooooXoooooooooooooooooooooooo",
"ooo.oooooooooooo. ...oooo..ooo  oooooo oo o oo  oo o oooooooooooooooooooooo oooooooooooooooooooooooo",
"oo.oooo.oooooo o   .. o o oXO+O++++++++++++++$O++$++Ooooooo oooo ooooo oo oooo oo ooooooooo o oooooo",
"oooooo.o.oooooXXXXXXX.X..oOtpdddpppppppppdpdppddpppdyOooooooooooooooooooooooooooooooo oooooooooooo..",
"oooooo.o.oo.oo,2****==*%..9skzccxxkkdkkkxcccccxllxccdO ooooooooooooooooooooooooooooooooooooooooooooo",
"oooooooo..o.oX2;;;44=:=O OqsfkkkkkkkdfkkkkkkkllkkkxcpO o ooo o ooo o oo  ooo ooooo oo oo ooooo o o o",
"oooooooooooooX2;=;==;=*. Oesfkkkkkkkkkkkkkkkkkkkkkkxp+ ooooooooo oo oooooo oooo oooooooooooooooooooo",
"oooo..ooo..ooX1;;:=:;=*XoOesfkkkkkkkkkkkkkkkkkkkkkkxdO ooooooooooXoXooooXooooooXoooooooo Xoooooooo.o",
"..ooooo.ooo.oX1:;=;;;;=X OeafkkkkkkkkkkkkkkkkkkkkkxcsOooooooooooooooooooo ooooo ooooooooooooooo oooo",
"o.....oo....oX1;;;;;;*>X.XeahkkkkkkkkkfkkkkkkkkkkkxcsOoooooooooooooooooooXoooooXooooooooX oooooXooo.",
"o...o.....oooX1;;;;;*XX. Oesfkkkkkkkkkkkkkkkkkkkkkxcp+oooooo....oooooX XooooXoooooooooo  XoXX oo.o.o",
"o.........o. X1;;;;,Xoo..OeafzzkkkkkkkkkkkkkkkkkkkccpOoooooo....ooXooooo XoooooooXoooXoXooo ooooo.o.",
"oooo.o.ooooo.X*;;;&Xoo.o.XeshkkkkkkkkkkkkkkkkkkkkkkcpOoo.ooo....oooo XoooooooooooooooXooX oX ooX.oo.",
"ooooo.o.ooo.oX*;;*Ooo.o..OeahkkkkkkkkkkkkkkkkkkkkklcpOoooooo....oXoooooooXoooXooooooo  Xoo XXoo o.oo",
"o.oooo.ooo..oX*;;*Xo.oo..XesfkkkkkkkkkkkkkkkkkkkkklcpO ooo o  ooo oooooo XooooooooXoooooXooooooX.oo.",
"oooooooooooo X*;;*X .....Xeshkkkkkkkkkkkkkkkkkkkkklcd$O++O++++++@@o XoXooo XooooooooXoooooooooooo..o",
"O.XXXXXXXXXXXX=;;*Xooo..oXrshkkkkkkkkkkkkkkkkkkkkkklkdsddddddddddu$oooooooXooooooooooooooooo.o.o.ooo",
"%71***&=111111;;;*Xo.oo.oXrahxkkkkklkkkkkkkkkkkkkkkkkccccccccccccf7XooooooooooXoooooooXooXooo.o.oXoo",
":4443;;;=;:;;;43;*Xo.oo. Oqsfkkkkkkkkkkkkklkkkkkkkkkkkkklllkkkxxcd$ooo.oooooooooX oXooooooooXoooXooo",
"=24=333;;=;4433;*Xo.o.o.oOrahkkkkkkkkkkkkkkkkkkkkkkkkkkkkkkkkkkkxdO .oooooXoXoooXooooooooooooo.ooooo",
"4;3;;;33;;;3;43;,Xo.oo..oXeahxkkkkkkkkkkkkkkkkkkkkkkkkkkkkkkkkkkzd+o.oo.ooooooXooX oooXooooXoo.ooooo",
"443442;3-33333;1Xo.oooo.oOesgkkkkkkkkkkkkkkkkkkkkkkkkkkkkkkkkkkkcp+oooo..ooooooo oXooooooooooooooooo",
"33333;3;34;3;3;1Xooooo.. @eshkkkkkkkkkkkkkkkkkkkkkkkkkkkkkkkkkkkcd+o.....ooooooooo ooooooooo..o.oooo",
"333333333-3334;1O.Xooo..oXeahkkkkkkkkklkkkkkkkklkkkkkkkkkkkkkkkkcd+......oXoXooooooXoXoooXoo...XooXo",
";;3;333333-3333;,Xoooo...Xrafkkkkkkkkkkkkkkkkkkkkkkkkkkkkkhkkkkkxh9Xo.ooo..o..o.oooooooo........oooo",
"333;3;333333;3::,Xoo.X...OrsfkkkkkkkkkkkkkkkkkkkkkkkkkkkkkkkkkkkcjtXo.oo........oXoooXoo........ooXo",
";333;333333;311,Xooooooo Oqsfkkkkkkkkkkkkkkkkkkkkkkkkkkkkkkkkkkkch9Xoooo..o.....oXoXoooo........oXoo",
";;33-;3343;;3@@@OXXXXOXXX+qakkkkkkkkkkkkkkkkkkkkkkkkkkkkkkkkkkkkcd%ooooooooo oo.oooooooX........ooXo",
";;;;3333333248qq9qqqq6qq9eusfkkkkkkkkkkkkkkkkkkkkkkkkkkkkkkkkkkkzft$+++++O+++++.....oooo.......ooooo",
";;;;3-;3431@4ahgdhggfhhhffffkkkkkkkkkkkkkkkkkkkkkkkkkkkkkkkkkkkkkkkppdddddpdddp+o...XooX.X.....XoX..",
";;-3;;33331O8gcczcczccccczzzkkkkkkkkkkkkkkkkkkkkkkkkkkkkkkkkkkkkkkccccccccccccxwOooooooo............",
"333;;3;3;:1@8gcxxxxllkzkkzkkkkkkkkkkkkkkkkkkkkkkkkkkkkkkkkkkkkkkkklxxxxxxxxxxxxyOoooXoXo............",
"-;;33;;;;;*@8fcxkkkkkkkkkkkkkkkkkkkkkkkkkkkkkkkkkkkkkkkkkkkkkkkkkkkkkkkkkkkkkkhtOo.o....XoXooooX....",
";3;;3;;;;;*@8dczkkkkkkkkkkkkhkkkkkkkkkkkkkkkkkkkkkkkkkkkkkkkkkzkkkkkkkkkkkkkkkktOo.o........oooo....",
";;;;;;;;4;,@5dzzkkkkkkkkkkkkkkkkkkkkkkkkkkkkkkkkkkkkkkkkkkkkkkkkkkkkkkkkkkkkkzktOo..........oooo....",
";;;;;3334:&@8fczkkkkkkkkkkkkkkkkkkkkkkkkkkkkkkkkkkkkkkkkkkkkkkkkkkkkkkkkkkkkkcktOo..........oOooX...",
";;3;;3;3;3-<6gczkhkkkkkkkkkkkkkkkkkkkkkkxkkkkkkkkkkkkkkkkkkkkkkkkkkkkkkkkkkkkzftO ......o...oooO....",
";;:;3;33;4-&6sczkkkkkkkkkkkkkkkkkkkkkkkkkkkkkkkkkklkkkkkkkkkkkkkkkkkkkkkkkkkkzktOo......o...oooo....",
";;;;3;;;;;--0gczkkkkkkkkkkkkkkkkkkkkkkkkkkkkkkkkkkkkkkkkkkkkkkkkkkkkkkkkkkkkkcktOo......oO..Oooo...o",
";;;;3;3;;;-&0dczkkkkkkkkkkkkkkkkkkkkkkxxkkkkkhkkkkkkkkkkkzkkkkkkkkkkkkkkkkkkkckyO ......oooooooo...o",
";343;33333-&0gccccccczczkczzczcclzzccczzkkkkkkkkkkkkkkkkkkkkkkkkkkkkkkkkkkkkkzktX  ooo  oo o o ooooo",
";;;;3;;;333&6aghhhhhjhjjhkhhkhhjkkjhhkhhkkkkkkkkkkkkkkkkkzkkkkkkkkkkkkkkkkkkkkki$+++++++++++++++++O+",
"-3;333;;3;33:0rrrrrrrereerrwererrerrrrriafkkkkkkkkkkkkkkkkkkkkkkkkkkkkkkkkkkkkkfdddddddddddddddddddd",
"3;33;;;;3;33;-&&&&&&&#@@@@@@+@@@@@@OXO+qafhkkkkkkkkkkkkkkkkkkkkkkkkkkkkkkkkkkkkkccccccccxccccccccccc",
"333;;;;433;;;;;-;---11,1****1,****<X..Xqagkkkkkkkkkkkkkkkkkkkkkkkkkkkkkkkkkkkkkkkkxxkkkkkkkkkkkxkkkk",
";3:;;;;33;;;;;:;;;;;;;;;;;;;:;;;:;=*,OOqafkkkkkkkkkkkkkkkkkkkkkkkkkkkkkkkkkkkkkkkkkkkkkkkhkkkkkkkkkk",
";34;;;;3;4;;;;;;;3;;;3=;=;;;;;;=;=;==,@eigkkkkkkkkkkkkkkkkkkkkkzkkkkkkkkkkkkkkkkkkkkkkkkkkkkkkkkkkkk",
";3;;;;333333;;;;;;3;33;;;;;;;;;;;;;==*@6igkkkkkkkkzkkkkkkkkkkkkkkkkkkkkkkkkkkkkkkkkkkkkkkkkkkkkkkkkk",
";;;;;;;;;;34;=;;-;3;;;;;;;;;;;;;;;;;;,#0agkkkkkkkkkkkkkkkkkkkkkkkkkkkkkkkkkkkkkkkkkkkkkkkkkkkkkkkkkk",
";;;;;;;;;;;;;;;;;;;;;;;;;;;;;-;;-;;;3--eagkkkkkkkkkkkkkkkkkkkkkkkkkkkkkkkkkkkkkkkkkkkkkkkkkkkkkkkkkh",
";4;;;;;;;;;=;;;3;;;;;;:;;:;;;;;;;;;;;-;ragkkkkkkkkxkkkkkkkkkkkkkkkkkkkkkkkkkkkkkkkkkkkkkkkkkkkkkkkkk",
";3;;;;;:;;;;;;;;;;;;;;;;;;;;;;;;;;;;;--0igkkhkkkkkhkkkkkhkkkkkkkkkkkkkkkkkkkkkkkkkkkkkkkkhkkhkkkkkkk",
"343;;;;;;;42;;;;;;;;;;;;;;3;;;-;3;;;--;0agkzkkkzxxzxkxxxxxxxxxxxkxkxkxxxkxxxklklkkxxxxxkxxxxkkzkkxxk",
";3;;;;;;:=;;;;;;;;;;;;;;;;;;;;;;3;3;;-;rshzccccczzczccxczzzzcczcxccxcccxzzczccczxccczzcccxcczzccczcc",
"1-1121122***1;;3;:;;;;;;;;;;;;;;;;;;;;:rushhghjjhhhhhhhhhhjhhhhhhjhhkhhhhhhhhhhhfhhhjhhfhhhhhhkfhkkf",
"XXXXXXXXXXXX@1;3;;;;;:;;;;3;;;;;;;;;;;;:6eeerqrerrrerrrrrrrrrrrrrrrrrrrrrrrrrrrwwwwwrrrrrrrrrrrwrrrr",
"ooooooooooo.X233;;;;;;;;3;;;;;;;;;;;;;;;-<#@@@@OXOX@OXOOOOOOXOOOOOOOOOOXOXOOOOOOOOOXOXXOXOXOXOXOXOOO",
"oXoXoXooooX.X143;;;;;;;;3;;;;;;;;;;;;;;;3-111*,XXX.ooooooXoooooooooooooooooooo..oooo....ooooooooooo ",
"ooXo..XoXoooX143;;;;;;;;;;:;;;;;;;;;;3;333;:;;;1131OXX..oooo.XoXoXo.X.XooXX.............oooooooooo..",
"XoooX.XoooXoX243;;;;;;;;;;;;333;;;;;3;;;;;33333;333111@XXXXXoooooooooooooooooooo..oo o..oooooooooooo",
"..X..X....XoX*;;;;;;;;;;;;;;33;;;;;;;;;;;;3;;-;;;;;34311122,@XXXXXXXXXXXXXXXXXXX.O.X.XX.XXXXXXXXXX.X",
"X.......oXooX;;;;;;;;;;;;;3;:;;;;;;;;;;;;;;3-;;;;;;-3333;;4;1*=***=*******=**=**=****==*************",
"......X....oX*;;:;;;;;3;;;;;;;;;;;;;;;;;;;;;;;;;;;3333334;;;;:;;;;;;;:;:;;;;;;:;=4;;;;::==::=;44;;;:",
"...X.X..oX..X*;;;;;;;;;;;;;;;;;;;;;;;;;;;;;;;;;;33333333;;;;;;;-;;;;;;==;;;;;;=:==========;=;4==4=;;",
"X...X......oO242;;;;;;;;=;;;;;;;;;;;334;;3;;;;;;33;;3-;;;;;;;;;;;;;;;;;;;;3333-33-333-3331313=3;2233",
"...X...XX..oX,24;;;;;;;;;;;;;;;;;;;;;3;33;;;;;3;3;344-;;;;;;;;;;:;;:;;;;;;33;;;3443343;3;3;;;;;=3=;;",
".........XoXoO24;343;;;;;;;;;;;;;;;;33;;3;3;;3;;;;333;;;;;;;:;;;=***-***-121111-31121,111111111===11",
"..X.X..X..o.oX24;3;4;;;;;;;;;;;;;;;;;4;;;3;;;3;;-;33;;;44;;;;-;1OXXXXXXXXXXXXXXXXXXXXXXXXXXXXXX*==XX"
};
